<svg viewBox="0 0 500 500" xmlns="http://www.w3.org/2000/svg">
    <defs>
        <linearGradient id="bgGrad" x1="0%" y1="0%" x2="100%" y2="100%">
            <stop offset="0%" stop-color="#1b253d" />
            <stop offset="100%" stop-color="#12192b" />
        </linearGradient>
        <linearGradient id="greenArrow" x1="0%" y1="0%" x2="100%" y2="0%">
            <stop offset="0%" stop-color="#8bc34a" />
            <stop offset="100%" stop-color="#689f38" />
        </linearGradient>
        <linearGradient id="lightBlue" x1="0%" y1="0%" x2="100%" y2="100%">
            <stop offset="0%" stop-color="#00e5ff" />
            <stop offset="100%" stop-color="#00838f" />
        </linearGradient>
        <linearGradient id="midBlue" x1="0%" y1="0%" x2="100%" y2="100%">
            <stop offset="0%" stop-color="#00b4d8" />
            <stop offset="100%" stop-color="#0077b6" />
        </linearGradient>
        <linearGradient id="darkBlue" x1="0%" y1="0%" x2="100%" y2="100%">
            <stop offset="0%" stop-color="#2a437c" />
            <stop offset="100%" stop-color="#152238" />
        </linearGradient>
    </defs>
    <circle cx="250" cy="250" r="230" fill="url(#bgGrad)" />
    <path d="M 250 80 L 350 140 L 320 140 L 320 170 L 250 135 L 180 170 L 180 140 L 150 140 Z" fill="url(#greenArrow)" />
    <text x="250" y="132" font-family="Arial, Helvetica, sans-serif" font-size="36" font-weight="bold" fill="#ffffff" text-anchor="middle">$</text>
    <path d="M 150 170 L 150 250 L 250 310 L 250 240 L 190 200 Z" fill="url(#darkBlue)" />
    <path d="M 350 170 L 350 260 L 250 320 L 250 260 L 310 220 Z" fill="url(#midBlue)" />
    <path d="M 160 205 C 190 180, 220 170, 250 190 C 280 210, 310 200, 340 180 L 300 225 C 270 250, 240 250, 200 225 Z" fill="url(#lightBlue)" />
    <path d="M 250 320 L 160 265 L 250 200 L 340 265 Z" fill="url(#midBlue)" opacity="0.8" />
    <path d="M 250 320 L 200 290 L 270 230 L 320 260 Z" fill="url(#lightBlue)" />
    <path d="M 280 300 L 240 275 L 290 235 L 330 260 Z" fill="#00e5ff" opacity="0.5" />
</svg>
